<svg xmlns="http://www.w3.org/2000/svg" x="0px" y="0px"
width="100" height="100"
viewBox="0 0 100 100"
style=" fill:#000000;"><path fill="#c7ede6" d="M87.215,56.71C88.35,54.555,89,52.105,89,49.5c0-6.621-4.159-12.257-10.001-14.478 C78.999,35.015,79,35.008,79,35c0-11.598-9.402-21-21-21c-9.784,0-17.981,6.701-20.313,15.757C36.211,29.272,34.638,29,33,29 c-7.692,0-14.023,5.793-14.89,13.252C12.906,43.353,9,47.969,9,53.5C9,59.851,14.149,65,20.5,65c0.177,0,0.352-0.012,0.526-0.022 C21.022,65.153,21,65.324,21,65.5C21,76.822,30.178,86,41.5,86c6.437,0,12.175-2.972,15.934-7.614C59.612,80.611,62.64,82,66,82 c4.65,0,8.674-2.65,10.666-6.518C77.718,75.817,78.837,76,80,76c6.075,0,11-4.925,11-11C91,61.689,89.53,58.727,87.215,56.71z"></path><path fill="#fdfcef" d="M36.5,75.5c0,0,1.567,0,3.5,0s3.5-1.567,3.5-3.5c0-1.781-1.335-3.234-3.055-3.455 C40.473,68.366,40.5,68.187,40.5,68c0-1.933-1.567-3.5-3.5-3.5c-1.032,0-1.95,0.455-2.59,1.165 c-0.384-1.808-1.987-3.165-3.91-3.165c-2.209,0-4,1.791-4,4c0,0.191,0.03,0.374,0.056,0.558C26.128,66.714,25.592,66.5,25,66.5 c-1.228,0-2.245,0.887-2.455,2.055C22.366,68.527,22.187,68.5,22,68.5c-1.933,0-3.5,1.567-3.5,3.5s1.567,3.5,3.5,3.5s7.5,0,7.5,0 V76h7V75.5z"></path><circle cx="31.5" cy="75.5" r=".5" fill="#472b29"></circle><path fill="#472b29" d="M40,76h-3.5c-0.276,0-0.5-0.224-0.5-0.5s0.224-0.5,0.5-0.5H40c1.654,0,3-1.346,3-3 c0-1.496-1.125-2.768-2.618-2.959c-0.134-0.018-0.255-0.088-0.336-0.196s-0.115-0.244-0.094-0.377C39.975,68.314,40,68.16,40,68 c0-1.654-1.346-3-3-3c-0.85,0-1.638,0.355-2.219,1c-0.125,0.139-0.321,0.198-0.5,0.148c-0.182-0.049-0.321-0.195-0.36-0.379 C33.58,64.165,32.141,63,30.5,63c-1.93,0-3.5,1.57-3.5,3.5c0,0.143,0.021,0.28,0.041,0.418c0.029,0.203-0.063,0.438-0.242,0.54 c-0.179,0.102-0.396,0.118-0.556-0.01C25.878,67.155,25.449,67,25,67c-0.966,0-1.792,0.691-1.963,1.644 c-0.048,0.267-0.296,0.446-0.569,0.405C22.314,69.025,22.16,69,22,69c-1.654,0-3,1.346-3,3s1.346,3,3,3h7.5 c0.276,0,0.5,0.224,0.5,0.5S29.776,76,29.5,76H22c-2.206,0-4-1.794-4-4s1.794-4,4-4c0.059,0,0.116,0.002,0.174,0.006 C22.588,66.82,23.711,66,25,66c0.349,0,0.689,0.061,1.011,0.18C26.176,63.847,28.126,62,30.5,62c1.831,0,3.466,1.127,4.153,2.774 C35.333,64.276,36.155,64,37,64c2.206,0,4,1.794,4,4c0,0.048-0.001,0.095-0.004,0.142C42.739,68.59,44,70.169,44,72 C44,74.206,42.206,76,40,76z"></path><path fill="#472b29" d="M34.5,75c-0.159,0-0.841,0-1,0c-0.276,0-0.5,0.224-0.5,0.5c0,0.276,0.224,0.5,0.5,0.5 c0.159,0,0.841,0,1,0c0.276,0,0.5-0.224,0.5-0.5C35,75.224,34.776,75,34.5,75z"></path><path fill="#fff" d="M15.405,51H5.5C5.224,51,5,50.776,5,50.5S5.224,50,5.5,50h9.905c0.276,0,0.5,0.224,0.5,0.5 S15.682,51,15.405,51z"></path><path fill="#fff" d="M18.5,51h-1c-0.276,0-0.5-0.224-0.5-0.5s0.224-0.5,0.5-0.5h1c0.276,0,0.5,0.224,0.5,0.5 S18.777,51,18.5,51z"></path><path fill="#fff" d="M23.491,53H14.5c-0.276,0-0.5-0.224-0.5-0.5s0.224-0.5,0.5-0.5h8.991c0.276,0,0.5,0.224,0.5,0.5 S23.767,53,23.491,53z"></path><path fill="#fff" d="M12.5,53h-1c-0.276,0-0.5-0.224-0.5-0.5s0.224-0.5,0.5-0.5h1c0.276,0,0.5,0.224,0.5,0.5 S12.777,53,12.5,53z"></path><path fill="#fff" d="M9.5,53h-2C7.224,53,7,52.776,7,52.5S7.224,52,7.5,52h2c0.276,0,0.5,0.224,0.5,0.5S9.777,53,9.5,53 z"></path><path fill="#fff" d="M15.5,55h-2c-0.276,0-0.5-0.224-0.5-0.5s0.224-0.5,0.5-0.5h2c0.276,0,0.5,0.224,0.5,0.5 S15.776,55,15.5,55z"></path><path fill="#fff" d="M18.5,46c-0.177,0-0.823,0-1,0c-0.276,0-0.5,0.224-0.5,0.5c0,0.276,0.224,0.5,0.5,0.5 c0.177,0,0.823,0,1,0c0.276,0,0.5-0.224,0.5-0.5C19,46.224,18.776,46,18.5,46z"></path><path fill="#fff" d="M18.5,48c-0.177,0-4.823,0-5,0c-0.276,0-0.5,0.224-0.5,0.5c0,0.276,0.224,0.5,0.5,0.5 c0.177,0,4.823,0,5,0c0.276,0,0.5-0.224,0.5-0.5C19,48.224,18.776,48,18.5,48z"></path><path fill="#fff" d="M23.5,50c-0.177,0-2.823,0-3,0c-0.276,0-0.5,0.224-0.5,0.5c0,0.276,0.224,0.5,0.5,0.5 c0.177,0,2.823,0,3,0c0.276,0,0.5-0.224,0.5-0.5C24,50.224,23.776,50,23.5,50z"></path><path fill="#fff" d="M87.5,65h-10c-0.276,0-0.5-0.224-0.5-0.5s0.224-0.5,0.5-0.5h10c0.276,0,0.5,0.224,0.5,0.5 S87.776,65,87.5,65z"></path><path fill="#fff" d="M91.5,65h-2c-0.276,0-0.5-0.224-0.5-0.5s0.224-0.5,0.5-0.5h2c0.276,0,0.5,0.224,0.5,0.5 S91.776,65,91.5,65z"></path><path fill="#fff" d="M96.5,67h-10c-0.276,0-0.5-0.224-0.5-0.5s0.224-0.5,0.5-0.5h10c0.276,0,0.5,0.224,0.5,0.5 S96.777,67,96.5,67z"></path><path fill="#fff" d="M84.5,67h-1c-0.276,0-0.5-0.224-0.5-0.5s0.224-0.5,0.5-0.5h1c0.276,0,0.5,0.224,0.5,0.5 S84.776,67,84.5,67z"></path><path fill="#fff" d="M81.375,67H79.5c-0.276,0-0.5-0.224-0.5-0.5s0.224-0.5,0.5-0.5h1.875c0.276,0,0.5,0.224,0.5,0.5 S81.651,67,81.375,67z"></path><path fill="#fff" d="M90.5,63h-5c-0.276,0-0.5-0.224-0.5-0.5s0.224-0.5,0.5-0.5h5c0.276,0,0.5,0.224,0.5,0.5 S90.777,63,90.5,63z"></path><path fill="#fff" d="M87.5,69h-2c-0.276,0-0.5-0.224-0.5-0.5s0.224-0.5,0.5-0.5h2c0.276,0,0.5,0.224,0.5,0.5 S87.776,69,87.5,69z"></path><circle cx="52" cy="50" r="23" fill="#fdfcef"></circle><path fill="#2d80d3" d="M52,73c-12.683,0-23-10.318-23-23s10.317-23,23-23s23,10.318,23,23S64.683,73,52,73z M52,31 c-10.477,0-19,8.523-19,19s8.523,19,19,19s19-8.523,19-19S62.477,31,52,31z"></path><path fill="#472b29" d="M51.999,27.4C64.461,27.4,74.6,37.538,74.6,49.999C74.6,62.461,64.461,72.6,51.999,72.6 C39.538,72.6,29.4,62.462,29.4,50S39.538,27.4,51.999,27.4 M51.999,26C38.765,26,28,36.766,28,50s10.765,24,23.999,24 S76,63.233,76,49.999S65.234,26,51.999,26L51.999,26z"></path><path fill="#472b29" d="M42.42,33.512c-0.174,0-0.344-0.091-0.436-0.254c-0.136-0.24-0.051-0.545,0.189-0.681 c1.009-0.571,2.075-1.056,3.167-1.442c0.262-0.091,0.546,0.043,0.639,0.305c0.092,0.26-0.045,0.546-0.305,0.638 c-1.038,0.366-2.051,0.827-3.009,1.369C42.588,33.491,42.504,33.512,42.42,33.512z"></path><path fill="#472b29" d="M40.368,66.152c-0.104,0-0.209-0.032-0.299-0.099C35.017,62.292,32,56.292,32,50 c0-5.936,2.613-11.528,7.169-15.343c0.211-0.179,0.526-0.149,0.705,0.063c0.177,0.211,0.148,0.527-0.063,0.704 C35.482,39.048,33,44.361,33,50c0,6.066,2.794,11.625,7.667,15.251c0.222,0.165,0.268,0.478,0.103,0.699 C40.671,66.083,40.521,66.152,40.368,66.152z"></path><path fill="#472b29" d="M52,70c-3.056,0-5.989-0.671-8.718-1.996c-0.249-0.121-0.353-0.419-0.232-0.668 c0.121-0.249,0.419-0.353,0.668-0.231C46.311,68.362,49.097,69,52,69c0.276,0,0.5,0.224,0.5,0.5S52.276,70,52,70z"></path><path fill="#472b29" d="M55.503,69.686c-0.236,0-0.447-0.169-0.491-0.411c-0.049-0.272,0.131-0.532,0.403-0.582 c0.636-0.115,1.275-0.266,1.901-0.448c0.267-0.078,0.543,0.075,0.62,0.34c0.077,0.265-0.075,0.542-0.341,0.62 c-0.659,0.192-1.333,0.351-2.003,0.472C55.563,69.684,55.533,69.686,55.503,69.686z"></path><path fill="#472b29" d="M60.5,68.055c-0.186,0-0.363-0.104-0.45-0.282c-0.12-0.249-0.017-0.548,0.232-0.668 C66.793,63.947,71,57.233,71,50c0-10.477-8.523-19-19-19c-1.163,0-2.327,0.106-3.461,0.314c-0.276,0.05-0.532-0.129-0.583-0.401 c-0.05-0.271,0.13-0.532,0.401-0.582C49.551,30.111,50.776,30,52,30c11.028,0,20,8.972,20,20c0,7.613-4.429,14.681-11.282,18.005 C60.647,68.039,60.573,68.055,60.5,68.055z"></path><g><path fill="#fdfcef" d="M78.875,35.5c0,0,3.64,0,6.125,0s4.5-2.015,4.5-4.5c0-2.333-1.782-4.229-4.055-4.455 C85.467,26.364,85.5,26.187,85.5,26c0-2.485-2.015-4.5-4.5-4.5c-1.438,0-2.703,0.686-3.527,1.736 C77.333,20.6,75.171,18.5,72.5,18.5c-2.761,0-5,2.239-5,5c0,0.446,0.077,0.87,0.187,1.282C67.045,24.005,66.086,23.5,65,23.5 c-1.781,0-3.234,1.335-3.455,3.055C61.364,26.533,61.187,26.5,61,26.5c-2.485,0-4.5,2.015-4.5,4.5s2.015,4.5,4.5,4.5s9.5,0,9.5,0 h5.375V36h3V35.5z"></path><path fill="#472b29" d="M72.5,18c-3.033,0-5.5,2.467-5.5,5.5c0,0.016,0,0.031,0,0.047C66.398,23.192,65.71,23,65,23 c-1.831,0-3.411,1.261-3.858,3.005C61.095,26.002,61.048,26,61,26c-2.757,0-5,2.243-5,5s2.243,5,5,5h14.875 c0.276,0,0.5-0.224,0.5-0.5s-0.224-0.5-0.5-0.5H61c-2.206,0-4-1.794-4-4s1.794-4,4-4c0.117,0,0.23,0.017,0.343,0.032l0.141,0.019 c0.021,0.003,0.041,0.004,0.062,0.004c0.246,0,0.462-0.185,0.495-0.437C62.232,25.125,63.504,24,65,24 c0.885,0,1.723,0.401,2.301,1.1c0.098,0.118,0.241,0.182,0.386,0.182c0.078,0,0.156-0.018,0.228-0.056 c0.209-0.107,0.314-0.346,0.254-0.573C68.054,24.218,68,23.852,68,23.5c0-2.481,2.019-4.5,4.5-4.5 c2.381,0,4.347,1.872,4.474,4.263c0.011,0.208,0.15,0.387,0.349,0.45c0.05,0.016,0.101,0.024,0.152,0.024 c0.15,0,0.296-0.069,0.392-0.192C78.638,22.563,79.779,22,81,22c2.206,0,4,1.794,4,4c0,0.117-0.017,0.23-0.032,0.343l-0.019,0.141 c-0.016,0.134,0.022,0.268,0.106,0.373c0.084,0.105,0.207,0.172,0.34,0.185C87.451,27.247,89,28.949,89,31c0,2.206-1.794,4-4,4 h-6.125c-0.276,0-0.5,0.224-0.5,0.5s0.224,0.5,0.5,0.5H85c2.757,0,5-2.243,5-5c0-2.397-1.689-4.413-4.003-4.877 C85.999,26.082,86,26.041,86,26c0-2.757-2.243-5-5-5c-1.176,0-2.293,0.416-3.183,1.164C77.219,19.76,75.055,18,72.5,18L72.5,18z"></path><path fill="#472b29" d="M71,25c-1.403,0-2.609,0.999-2.913,2.341C67.72,27.119,67.301,27,66.875,27 c-1.202,0-2.198,0.897-2.353,2.068C64.319,29.022,64.126,29,63.937,29c-1.529,0-2.811,1.2-2.918,2.732 C61.01,31.87,61.114,31.99,61.251,32c0.006,0,0.012,0,0.018,0c0.13,0,0.24-0.101,0.249-0.232c0.089-1.271,1.151-2.268,2.419-2.268 c0.229,0,0.47,0.042,0.738,0.127c0.022,0.007,0.045,0.01,0.067,0.01c0.055,0,0.11-0.02,0.156-0.054 C64.962,29.537,65,29.455,65,29.375c0-1.034,0.841-1.875,1.875-1.875c0.447,0,0.885,0.168,1.231,0.473 c0.047,0.041,0.106,0.063,0.165,0.063c0.032,0,0.063-0.006,0.093-0.019c0.088-0.035,0.148-0.117,0.155-0.212 C68.623,26.512,69.712,25.5,71,25.5c0.208,0,0.425,0.034,0.682,0.107c0.023,0.007,0.047,0.01,0.07,0.01 c0.109,0,0.207-0.073,0.239-0.182c0.038-0.133-0.039-0.271-0.172-0.309C71.517,25.04,71.256,25,71,25L71,25z"></path><path fill="#472b29" d="M84.883,26.5c-1.326,0-2.508,0.897-2.874,2.182c-0.038,0.133,0.039,0.271,0.172,0.309 C82.205,28.997,82.228,29,82.25,29c0.109,0,0.209-0.072,0.24-0.182C82.795,27.748,83.779,27,84.883,27 c0.117,0,0.23,0.014,0.342,0.029c0.012,0.002,0.023,0.003,0.035,0.003c0.121,0,0.229-0.092,0.246-0.217 c0.019-0.137-0.077-0.263-0.214-0.281C85.158,26.516,85.022,26.5,84.883,26.5L84.883,26.5z"></path></g><path fill="#605e60" d="M61.261,45.145l-4.04,0.536c0,0,0.611-5.149-6.115-5.149c-3.422,0-4.721,2.059-4.721,3.613 c0,1.898,1.751,2.794,7.216,3.971c5.466,1.177,8.127,3.217,8.127,6.82s-2.636,7.164-9.741,7.164c-6.417,0-9.27-2.816-10.316-8.101 c2.234-0.312,4.206-0.6,4.206-0.6s-0.709,5.822,6.084,5.822c3.089,0,5.871-0.898,5.871-3.828c0-2.93-2.829-3.507-6.298-4.131 c-3.47-0.625-8.912-1.85-8.912-7.062c0-4.623,5.038-6.701,8.436-6.701C58.495,37.499,61.261,41.628,61.261,45.145z"></path><path fill="#472b29" d="M51.987,62.351c-6.168,0-9.426-2.561-10.561-8.302c-0.014-0.067,0.002-0.137,0.041-0.193 c0.04-0.056,0.102-0.093,0.17-0.103c2.232-0.313,4.204-0.601,4.204-0.601c0.074-0.01,0.154,0.014,0.211,0.069 c0.056,0.054,0.083,0.131,0.073,0.208c-0.003,0.022-0.25,2.251,1.174,3.856c0.994,1.119,2.562,1.687,4.661,1.687 c2.564,0,5.621-0.621,5.621-3.579c0-2.601-2.302-3.203-6.093-3.885c-2.96-0.533-9.117-1.642-9.117-7.308 c0-4.742,5.184-6.951,8.687-6.951c7.221,0,10.452,3.966,10.452,7.896c0,0.125-0.093,0.231-0.217,0.248l-4.039,0.537 c-0.075,0.011-0.153-0.016-0.208-0.07c-0.056-0.054-0.082-0.131-0.073-0.207c0.002-0.018,0.191-1.81-1.043-3.195 c-0.991-1.111-2.614-1.675-4.825-1.675c-3.071,0-4.471,1.744-4.471,3.363c0,1.697,1.64,2.568,7.02,3.727 c5.757,1.24,8.324,3.418,8.324,7.064C61.979,58.521,59.354,62.351,51.987,62.351z M41.971,54.211 c1.137,5.352,4.146,7.64,10.017,7.64c8.807,0,9.491-5.292,9.491-6.914c0-3.367-2.445-5.395-7.93-6.575 c-5.127-1.104-7.414-1.975-7.414-4.216c0-1.861,1.556-3.863,4.971-3.863c2.363,0,4.114,0.622,5.203,1.848 c1.069,1.203,1.186,2.637,1.179,3.263l3.52-0.468c-0.109-3.361-2.759-7.177-9.948-7.177c-3.302,0-8.187,2.05-8.187,6.451 c0,4.625,4.4,6.041,8.705,6.816c3.346,0.602,6.505,1.171,6.505,4.377c0,2.63-2.174,4.079-6.121,4.079 c-2.251,0-3.946-0.625-5.038-1.859c-1.251-1.413-1.338-3.199-1.314-3.921C45.003,53.78,43.573,53.986,41.971,54.211z"></path></svg>